ISO-10303-21;
HEADER;
/* Generated by software containing ST-Developer
 * from STEP Tools, Inc. (www.steptools.com) 
 */
/* OPTION: using custom renumber hook */

FILE_DESCRIPTION(
/* description */ ('STEP AP242 Edition 2',
'CAx-IF Rec.Pracs.---Representation and Presentation of Product Manufa
cturing Information (PMI)---4.0---2014-10-13',
'CAx-IF Rec.Pracs.---3D Tessellated Geometry---0.4---2014-09-14','2;1',
'CAx-IF Rec.Pracs.---User Defined Attributes---1.5---2016-08-15'),
/* implementation_level */ '2;1');

FILE_NAME(
/* name */ 'Part Studio 2',
/* time_stamp */ '2026-07-05T01:16:35Z',
/* author */ (''),
/* organization */ (''),
/* preprocessor_version */ 'ST-DEVELOPER v20',
/* originating_system */ 'ONSHAPE BY PTC INC, 1.217',
/* authorisation */ '  ');

FILE_SCHEMA (('AP242_MANAGED_MODEL_BASED_3D_ENGINEERING_MIM_LF { 1 0 10303 442 3 1 4 }'));
ENDSEC;

DATA;
#10=SHAPE_REPRESENTATION_RELATIONSHIP('','',#419,#11);
#11=ADVANCED_BREP_SHAPE_REPRESENTATION('',(#417),#653);
#12=CIRCLE('',#436,0.00238125);
#13=CIRCLE('',#437,0.00238125);
#14=CIRCLE('',#439,0.00238125);
#15=CIRCLE('',#440,0.00238125);
#16=CYLINDRICAL_SURFACE('',#435,0.00238125);
#17=CYLINDRICAL_SURFACE('',#438,0.00238125);
#18=ORIENTED_EDGE('',*,*,#122,.T.);
#19=ORIENTED_EDGE('',*,*,#123,.F.);
#20=ORIENTED_EDGE('',*,*,#124,.F.);
#21=ORIENTED_EDGE('',*,*,#125,.T.);
#22=ORIENTED_EDGE('',*,*,#126,.T.);
#23=ORIENTED_EDGE('',*,*,#127,.F.);
#24=ORIENTED_EDGE('',*,*,#128,.F.);
#25=ORIENTED_EDGE('',*,*,#123,.T.);
#26=ORIENTED_EDGE('',*,*,#129,.T.);
#27=ORIENTED_EDGE('',*,*,#130,.F.);
#28=ORIENTED_EDGE('',*,*,#131,.F.);
#29=ORIENTED_EDGE('',*,*,#127,.T.);
#30=ORIENTED_EDGE('',*,*,#132,.F.);
#31=ORIENTED_EDGE('',*,*,#133,.F.);
#32=ORIENTED_EDGE('',*,*,#134,.T.);
#33=ORIENTED_EDGE('',*,*,#135,.T.);
#34=ORIENTED_EDGE('',*,*,#136,.T.);
#35=ORIENTED_EDGE('',*,*,#137,.F.);
#36=ORIENTED_EDGE('',*,*,#138,.F.);
#37=ORIENTED_EDGE('',*,*,#133,.T.);
#38=ORIENTED_EDGE('',*,*,#139,.T.);
#39=ORIENTED_EDGE('',*,*,#140,.F.);
#40=ORIENTED_EDGE('',*,*,#141,.F.);
#41=ORIENTED_EDGE('',*,*,#137,.T.);
#42=ORIENTED_EDGE('',*,*,#142,.F.);
#43=ORIENTED_EDGE('',*,*,#143,.F.);
#44=ORIENTED_EDGE('',*,*,#144,.T.);
#45=ORIENTED_EDGE('',*,*,#145,.T.);
#46=ORIENTED_EDGE('',*,*,#146,.F.);
#47=ORIENTED_EDGE('',*,*,#147,.F.);
#48=ORIENTED_EDGE('',*,*,#148,.T.);
#49=ORIENTED_EDGE('',*,*,#143,.T.);
#50=ORIENTED_EDGE('',*,*,#149,.T.);
#51=ORIENTED_EDGE('',*,*,#150,.F.);
#52=ORIENTED_EDGE('',*,*,#151,.F.);
#53=ORIENTED_EDGE('',*,*,#147,.T.);
#54=ORIENTED_EDGE('',*,*,#152,.F.);
#55=ORIENTED_EDGE('',*,*,#153,.F.);
#56=ORIENTED_EDGE('',*,*,#154,.T.);
#57=ORIENTED_EDGE('',*,*,#155,.T.);
#58=ORIENTED_EDGE('',*,*,#156,.T.);
#59=ORIENTED_EDGE('',*,*,#157,.F.);
#60=ORIENTED_EDGE('',*,*,#158,.F.);
#61=ORIENTED_EDGE('',*,*,#153,.T.);
#62=ORIENTED_EDGE('',*,*,#159,.T.);
#63=ORIENTED_EDGE('',*,*,#160,.F.);
#64=ORIENTED_EDGE('',*,*,#161,.F.);
#65=ORIENTED_EDGE('',*,*,#157,.T.);
#66=ORIENTED_EDGE('',*,*,#162,.F.);
#67=ORIENTED_EDGE('',*,*,#135,.F.);
#68=ORIENTED_EDGE('',*,*,#163,.T.);
#69=ORIENTED_EDGE('',*,*,#140,.T.);
#70=ORIENTED_EDGE('',*,*,#164,.T.);
#71=ORIENTED_EDGE('',*,*,#145,.F.);
#72=ORIENTED_EDGE('',*,*,#165,.F.);
#73=ORIENTED_EDGE('',*,*,#150,.T.);
#74=ORIENTED_EDGE('',*,*,#166,.T.);
#75=ORIENTED_EDGE('',*,*,#167,.F.);
#76=ORIENTED_EDGE('',*,*,#168,.F.);
#77=ORIENTED_EDGE('',*,*,#169,.T.);
#78=ORIENTED_EDGE('',*,*,#170,.F.);
#79=ORIENTED_EDGE('',*,*,#155,.F.);
#80=ORIENTED_EDGE('',*,*,#171,.T.);
#81=ORIENTED_EDGE('',*,*,#160,.T.);
#82=ORIENTED_EDGE('',*,*,#172,.T.);
#83=ORIENTED_EDGE('',*,*,#125,.F.);
#84=ORIENTED_EDGE('',*,*,#173,.F.);
#85=ORIENTED_EDGE('',*,*,#130,.T.);
#86=ORIENTED_EDGE('',*,*,#154,.F.);
#87=ORIENTED_EDGE('',*,*,#158,.T.);
#88=ORIENTED_EDGE('',*,*,#161,.T.);
#89=ORIENTED_EDGE('',*,*,#171,.F.);
#90=ORIENTED_EDGE('',*,*,#168,.T.);
#91=ORIENTED_EDGE('',*,*,#166,.F.);
#92=ORIENTED_EDGE('',*,*,#144,.F.);
#93=ORIENTED_EDGE('',*,*,#148,.F.);
#94=ORIENTED_EDGE('',*,*,#151,.T.);
#95=ORIENTED_EDGE('',*,*,#165,.T.);
#96=ORIENTED_EDGE('',*,*,#134,.F.);
#97=ORIENTED_EDGE('',*,*,#138,.T.);
#98=ORIENTED_EDGE('',*,*,#141,.T.);
#99=ORIENTED_EDGE('',*,*,#163,.F.);
#100=ORIENTED_EDGE('',*,*,#124,.T.);
#101=ORIENTED_EDGE('',*,*,#128,.T.);
#102=ORIENTED_EDGE('',*,*,#131,.T.);
#103=ORIENTED_EDGE('',*,*,#173,.T.);
#104=ORIENTED_EDGE('',*,*,#152,.T.);
#105=ORIENTED_EDGE('',*,*,#170,.T.);
#106=ORIENTED_EDGE('',*,*,#159,.F.);
#107=ORIENTED_EDGE('',*,*,#156,.F.);
#108=ORIENTED_EDGE('',*,*,#169,.F.);
#109=ORIENTED_EDGE('',*,*,#167,.T.);
#110=ORIENTED_EDGE('',*,*,#142,.T.);
#111=ORIENTED_EDGE('',*,*,#164,.F.);
#112=ORIENTED_EDGE('',*,*,#149,.F.);
#113=ORIENTED_EDGE('',*,*,#146,.T.);
#114=ORIENTED_EDGE('',*,*,#132,.T.);
#115=ORIENTED_EDGE('',*,*,#162,.T.);
#116=ORIENTED_EDGE('',*,*,#139,.F.);
#117=ORIENTED_EDGE('',*,*,#136,.F.);
#118=ORIENTED_EDGE('',*,*,#122,.F.);
#119=ORIENTED_EDGE('',*,*,#172,.F.);
#120=ORIENTED_EDGE('',*,*,#129,.F.);
#121=ORIENTED_EDGE('',*,*,#126,.F.);
#122=EDGE_CURVE('',#174,#175,#210,.T.);
#123=EDGE_CURVE('',#176,#175,#211,.T.);
#124=EDGE_CURVE('',#177,#176,#212,.T.);
#125=EDGE_CURVE('',#177,#174,#213,.T.);
#126=EDGE_CURVE('',#175,#178,#214,.T.);
#127=EDGE_CURVE('',#179,#178,#215,.T.);
#128=EDGE_CURVE('',#176,#179,#216,.T.);
#129=EDGE_CURVE('',#178,#180,#217,.T.);
#130=EDGE_CURVE('',#181,#180,#218,.T.);
#131=EDGE_CURVE('',#179,#181,#219,.T.);
#132=EDGE_CURVE('',#182,#183,#220,.T.);
#133=EDGE_CURVE('',#184,#182,#221,.T.);
#134=EDGE_CURVE('',#184,#185,#222,.T.);
#135=EDGE_CURVE('',#185,#183,#223,.T.);
#136=EDGE_CURVE('',#182,#186,#224,.T.);
#137=EDGE_CURVE('',#187,#186,#225,.T.);
#138=EDGE_CURVE('',#184,#187,#226,.T.);
#139=EDGE_CURVE('',#186,#188,#227,.T.);
#140=EDGE_CURVE('',#189,#188,#228,.T.);
#141=EDGE_CURVE('',#187,#189,#229,.T.);
#142=EDGE_CURVE('',#190,#191,#230,.T.);
#143=EDGE_CURVE('',#192,#190,#231,.T.);
#144=EDGE_CURVE('',#192,#193,#232,.T.);
#145=EDGE_CURVE('',#193,#191,#233,.T.);
#146=EDGE_CURVE('',#194,#190,#234,.T.);
#147=EDGE_CURVE('',#195,#194,#235,.T.);
#148=EDGE_CURVE('',#195,#192,#236,.T.);
#149=EDGE_CURVE('',#194,#196,#237,.T.);
#150=EDGE_CURVE('',#197,#196,#238,.T.);
#151=EDGE_CURVE('',#195,#197,#239,.T.);
#152=EDGE_CURVE('',#198,#199,#240,.T.);
#153=EDGE_CURVE('',#200,#198,#241,.T.);
#154=EDGE_CURVE('',#200,#201,#242,.T.);
#155=EDGE_CURVE('',#201,#199,#243,.T.);
#156=EDGE_CURVE('',#198,#202,#244,.T.);
#157=EDGE_CURVE('',#203,#202,#245,.T.);
#158=EDGE_CURVE('',#200,#203,#246,.T.);
#159=EDGE_CURVE('',#202,#204,#247,.T.);
#160=EDGE_CURVE('',#205,#204,#248,.T.);
#161=EDGE_CURVE('',#203,#205,#249,.T.);
#162=EDGE_CURVE('',#183,#188,#250,.T.);
#163=EDGE_CURVE('',#185,#189,#251,.T.);
#164=EDGE_CURVE('',#196,#191,#252,.T.);
#165=EDGE_CURVE('',#197,#193,#253,.T.);
#166=EDGE_CURVE('',#206,#206,#12,.T.);
#167=EDGE_CURVE('',#207,#207,#13,.T.);
#168=EDGE_CURVE('',#208,#208,#14,.T.);
#169=EDGE_CURVE('',#209,#209,#15,.T.);
#170=EDGE_CURVE('',#199,#204,#254,.T.);
#171=EDGE_CURVE('',#201,#205,#255,.T.);
#172=EDGE_CURVE('',#180,#174,#256,.T.);
#173=EDGE_CURVE('',#181,#177,#257,.T.);
#174=VERTEX_POINT('',#546);
#175=VERTEX_POINT('',#547);
#176=VERTEX_POINT('',#549);
#177=VERTEX_POINT('',#551);
#178=VERTEX_POINT('',#555);
#179=VERTEX_POINT('',#557);
#180=VERTEX_POINT('',#561);
#181=VERTEX_POINT('',#563);
#182=VERTEX_POINT('',#567);
#183=VERTEX_POINT('',#568);
#184=VERTEX_POINT('',#570);
#185=VERTEX_POINT('',#572);
#186=VERTEX_POINT('',#576);
#187=VERTEX_POINT('',#578);
#188=VERTEX_POINT('',#582);
#189=VERTEX_POINT('',#584);
#190=VERTEX_POINT('',#588);
#191=VERTEX_POINT('',#589);
#192=VERTEX_POINT('',#591);
#193=VERTEX_POINT('',#593);
#194=VERTEX_POINT('',#597);
#195=VERTEX_POINT('',#599);
#196=VERTEX_POINT('',#603);
#197=VERTEX_POINT('',#605);
#198=VERTEX_POINT('',#609);
#199=VERTEX_POINT('',#610);
#200=VERTEX_POINT('',#612);
#201=VERTEX_POINT('',#614);
#202=VERTEX_POINT('',#618);
#203=VERTEX_POINT('',#620);
#204=VERTEX_POINT('',#624);
#205=VERTEX_POINT('',#626);
#206=VERTEX_POINT('',#636);
#207=VERTEX_POINT('',#638);
#208=VERTEX_POINT('',#641);
#209=VERTEX_POINT('',#643);
#210=LINE('',#545,#258);
#211=LINE('',#548,#259);
#212=LINE('',#550,#260);
#213=LINE('',#552,#261);
#214=LINE('',#554,#262);
#215=LINE('',#556,#263);
#216=LINE('',#558,#264);
#217=LINE('',#560,#265);
#218=LINE('',#562,#266);
#219=LINE('',#564,#267);
#220=LINE('',#566,#268);
#221=LINE('',#569,#269);
#222=LINE('',#571,#270);
#223=LINE('',#573,#271);
#224=LINE('',#575,#272);
#225=LINE('',#577,#273);
#226=LINE('',#579,#274);
#227=LINE('',#581,#275);
#228=LINE('',#583,#276);
#229=LINE('',#585,#277);
#230=LINE('',#587,#278);
#231=LINE('',#590,#279);
#232=LINE('',#592,#280);
#233=LINE('',#594,#281);
#234=LINE('',#596,#282);
#235=LINE('',#598,#283);
#236=LINE('',#600,#284);
#237=LINE('',#602,#285);
#238=LINE('',#604,#286);
#239=LINE('',#606,#287);
#240=LINE('',#608,#288);
#241=LINE('',#611,#289);
#242=LINE('',#613,#290);
#243=LINE('',#615,#291);
#244=LINE('',#617,#292);
#245=LINE('',#619,#293);
#246=LINE('',#621,#294);
#247=LINE('',#623,#295);
#248=LINE('',#625,#296);
#249=LINE('',#627,#297);
#250=LINE('',#629,#298);
#251=LINE('',#630,#299);
#252=LINE('',#632,#300);
#253=LINE('',#633,#301);
#254=LINE('',#645,#302);
#255=LINE('',#646,#303);
#256=LINE('',#648,#304);
#257=LINE('',#649,#305);
#258=VECTOR('',#449,1.);
#259=VECTOR('',#450,1.);
#260=VECTOR('',#451,1.);
#261=VECTOR('',#452,1.);
#262=VECTOR('',#455,1.);
#263=VECTOR('',#456,1.);
#264=VECTOR('',#457,1.);
#265=VECTOR('',#460,1.);
#266=VECTOR('',#461,1.);
#267=VECTOR('',#462,1.);
#268=VECTOR('',#465,1.);
#269=VECTOR('',#466,1.);
#270=VECTOR('',#467,1.);
#271=VECTOR('',#468,1.);
#272=VECTOR('',#471,1.);
#273=VECTOR('',#472,1.);
#274=VECTOR('',#473,1.);
#275=VECTOR('',#476,1.);
#276=VECTOR('',#477,1.);
#277=VECTOR('',#478,1.);
#278=VECTOR('',#481,1.);
#279=VECTOR('',#482,1.);
#280=VECTOR('',#483,1.);
#281=VECTOR('',#484,1.);
#282=VECTOR('',#487,1.);
#283=VECTOR('',#488,1.);
#284=VECTOR('',#489,1.);
#285=VECTOR('',#492,1.);
#286=VECTOR('',#493,1.);
#287=VECTOR('',#494,1.);
#288=VECTOR('',#497,1.);
#289=VECTOR('',#498,1.);
#290=VECTOR('',#499,1.);
#291=VECTOR('',#500,1.);
#292=VECTOR('',#503,1.);
#293=VECTOR('',#504,1.);
#294=VECTOR('',#505,1.);
#295=VECTOR('',#508,1.);
#296=VECTOR('',#509,1.);
#297=VECTOR('',#510,1.);
#298=VECTOR('',#513,1.);
#299=VECTOR('',#514,1.);
#300=VECTOR('',#517,1.);
#301=VECTOR('',#518,1.);
#302=VECTOR('',#533,1.);
#303=VECTOR('',#534,1.);
#304=VECTOR('',#537,1.);
#305=VECTOR('',#538,1.);
#306=EDGE_LOOP('',(#18,#19,#20,#21));
#307=EDGE_LOOP('',(#22,#23,#24,#25));
#308=EDGE_LOOP('',(#26,#27,#28,#29));
#309=EDGE_LOOP('',(#30,#31,#32,#33));
#310=EDGE_LOOP('',(#34,#35,#36,#37));
#311=EDGE_LOOP('',(#38,#39,#40,#41));
#312=EDGE_LOOP('',(#42,#43,#44,#45));
#313=EDGE_LOOP('',(#46,#47,#48,#49));
#314=EDGE_LOOP('',(#50,#51,#52,#53));
#315=EDGE_LOOP('',(#54,#55,#56,#57));
#316=EDGE_LOOP('',(#58,#59,#60,#61));
#317=EDGE_LOOP('',(#62,#63,#64,#65));
#318=EDGE_LOOP('',(#66,#67,#68,#69));
#319=EDGE_LOOP('',(#70,#71,#72,#73));
#320=EDGE_LOOP('',(#74));
#321=EDGE_LOOP('',(#75));
#322=EDGE_LOOP('',(#76));
#323=EDGE_LOOP('',(#77));
#324=EDGE_LOOP('',(#78,#79,#80,#81));
#325=EDGE_LOOP('',(#82,#83,#84,#85));
#326=EDGE_LOOP('',(#86,#87,#88,#89));
#327=EDGE_LOOP('',(#90));
#328=EDGE_LOOP('',(#91));
#329=EDGE_LOOP('',(#92,#93,#94,#95));
#330=EDGE_LOOP('',(#96,#97,#98,#99));
#331=EDGE_LOOP('',(#100,#101,#102,#103));
#332=EDGE_LOOP('',(#104,#105,#106,#107));
#333=EDGE_LOOP('',(#108));
#334=EDGE_LOOP('',(#109));
#335=EDGE_LOOP('',(#110,#111,#112,#113));
#336=EDGE_LOOP('',(#114,#115,#116,#117));
#337=EDGE_LOOP('',(#118,#119,#120,#121));
#338=FACE_BOUND('',#306,.T.);
#339=FACE_BOUND('',#307,.T.);
#340=FACE_BOUND('',#308,.T.);
#341=FACE_BOUND('',#309,.T.);
#342=FACE_BOUND('',#310,.T.);
#343=FACE_BOUND('',#311,.T.);
#344=FACE_BOUND('',#312,.T.);
#345=FACE_BOUND('',#313,.T.);
#346=FACE_BOUND('',#314,.T.);
#347=FACE_BOUND('',#315,.T.);
#348=FACE_BOUND('',#316,.T.);
#349=FACE_BOUND('',#317,.T.);
#350=FACE_BOUND('',#318,.T.);
#351=FACE_BOUND('',#319,.T.);
#352=FACE_BOUND('',#320,.T.);
#353=FACE_BOUND('',#321,.T.);
#354=FACE_BOUND('',#322,.T.);
#355=FACE_BOUND('',#323,.T.);
#356=FACE_BOUND('',#324,.T.);
#357=FACE_BOUND('',#325,.T.);
#358=FACE_BOUND('',#326,.T.);
#359=FACE_BOUND('',#327,.T.);
#360=FACE_BOUND('',#328,.T.);
#361=FACE_BOUND('',#329,.T.);
#362=FACE_BOUND('',#330,.T.);
#363=FACE_BOUND('',#331,.T.);
#364=FACE_BOUND('',#332,.T.);
#365=FACE_BOUND('',#333,.T.);
#366=FACE_BOUND('',#334,.T.);
#367=FACE_BOUND('',#335,.T.);
#368=FACE_BOUND('',#336,.T.);
#369=FACE_BOUND('',#337,.T.);
#370=PLANE('',#421);
#371=PLANE('',#422);
#372=PLANE('',#423);
#373=PLANE('',#424);
#374=PLANE('',#425);
#375=PLANE('',#426);
#376=PLANE('',#427);
#377=PLANE('',#428);
#378=PLANE('',#429);
#379=PLANE('',#430);
#380=PLANE('',#431);
#381=PLANE('',#432);
#382=PLANE('',#433);
#383=PLANE('',#434);
#384=PLANE('',#441);
#385=PLANE('',#442);
#386=PLANE('',#443);
#387=PLANE('',#444);
#388=ADVANCED_FACE('',(#338),#370,.F.);
#389=ADVANCED_FACE('',(#339),#371,.F.);
#390=ADVANCED_FACE('',(#340),#372,.F.);
#391=ADVANCED_FACE('',(#341),#373,.T.);
#392=ADVANCED_FACE('',(#342),#374,.F.);
#393=ADVANCED_FACE('',(#343),#375,.F.);
#394=ADVANCED_FACE('',(#344),#376,.T.);
#395=ADVANCED_FACE('',(#345),#377,.T.);
#396=ADVANCED_FACE('',(#346),#378,.F.);
#397=ADVANCED_FACE('',(#347),#379,.T.);
#398=ADVANCED_FACE('',(#348),#380,.F.);
#399=ADVANCED_FACE('',(#349),#381,.F.);
#400=ADVANCED_FACE('',(#350),#382,.T.);
#401=ADVANCED_FACE('',(#351),#383,.F.);
#402=ADVANCED_FACE('',(#352,#353),#16,.F.);
#403=ADVANCED_FACE('',(#354,#355),#17,.F.);
#404=ADVANCED_FACE('',(#356),#384,.T.);
#405=ADVANCED_FACE('',(#357),#385,.F.);
#406=ADVANCED_FACE('',(#358,#359,#360,#361,#362,#363),#386,.T.);
#407=ADVANCED_FACE('',(#364,#365,#366,#367,#368,#369),#387,.F.);
#408=CLOSED_SHELL('',(#388,#389,#390,#391,#392,#393,#394,#395,#396,#397,
#398,#399,#400,#401,#402,#403,#404,#405,#406,#407));
#409=STYLED_ITEM('',(#410),#417);
#410=PRESENTATION_STYLE_ASSIGNMENT((#411));
#411=SURFACE_STYLE_USAGE(.BOTH.,#412);
#412=SURFACE_SIDE_STYLE('',(#413));
#413=SURFACE_STYLE_FILL_AREA(#414);
#414=FILL_AREA_STYLE('',(#415));
#415=FILL_AREA_STYLE_COLOUR('',#416);
#416=COLOUR_RGB('',0.615686274509804,0.811764705882353,0.929411764705882);
#417=MANIFOLD_SOLID_BREP('Part 1',#408);
#418=SHAPE_DEFINITION_REPRESENTATION(#658,#419);
#419=SHAPE_REPRESENTATION('Part 1',(#420),#653);
#420=AXIS2_PLACEMENT_3D('',#543,#445,#446);
#421=AXIS2_PLACEMENT_3D('',#544,#447,#448);
#422=AXIS2_PLACEMENT_3D('',#553,#453,#454);
#423=AXIS2_PLACEMENT_3D('',#559,#458,#459);
#424=AXIS2_PLACEMENT_3D('',#565,#463,#464);
#425=AXIS2_PLACEMENT_3D('',#574,#469,#470);
#426=AXIS2_PLACEMENT_3D('',#580,#474,#475);
#427=AXIS2_PLACEMENT_3D('',#586,#479,#480);
#428=AXIS2_PLACEMENT_3D('',#595,#485,#486);
#429=AXIS2_PLACEMENT_3D('',#601,#490,#491);
#430=AXIS2_PLACEMENT_3D('',#607,#495,#496);
#431=AXIS2_PLACEMENT_3D('',#616,#501,#502);
#432=AXIS2_PLACEMENT_3D('',#622,#506,#507);
#433=AXIS2_PLACEMENT_3D('',#628,#511,#512);
#434=AXIS2_PLACEMENT_3D('',#631,#515,#516);
#435=AXIS2_PLACEMENT_3D('',#634,#519,#520);
#436=AXIS2_PLACEMENT_3D('',#635,#521,#522);
#437=AXIS2_PLACEMENT_3D('',#637,#523,#524);
#438=AXIS2_PLACEMENT_3D('',#639,#525,#526);
#439=AXIS2_PLACEMENT_3D('',#640,#527,#528);
#440=AXIS2_PLACEMENT_3D('',#642,#529,#530);
#441=AXIS2_PLACEMENT_3D('',#644,#531,#532);
#442=AXIS2_PLACEMENT_3D('',#647,#535,#536);
#443=AXIS2_PLACEMENT_3D('',#650,#539,#540);
#444=AXIS2_PLACEMENT_3D('',#651,#541,#542);
#445=DIRECTION('',(0.,0.,1.));
#446=DIRECTION('',(1.,0.,0.));
#447=DIRECTION('',(1.,0.,0.));
#448=DIRECTION('',(0.,0.,-1.));
#449=DIRECTION('',(0.,-1.,0.));
#450=DIRECTION('',(0.,0.,-1.));
#451=DIRECTION('',(0.,-1.,0.));
#452=DIRECTION('',(0.,0.,-1.));
#453=DIRECTION('',(0.,1.,0.));
#454=DIRECTION('',(0.,0.,1.));
#455=DIRECTION('',(1.,0.,0.));
#456=DIRECTION('',(0.,0.,-1.));
#457=DIRECTION('',(1.,0.,0.));
#458=DIRECTION('',(-1.,0.,0.));
#459=DIRECTION('',(0.,0.,1.));
#460=DIRECTION('',(0.,1.,0.));
#461=DIRECTION('',(0.,0.,-1.));
#462=DIRECTION('',(0.,1.,0.));
#463=DIRECTION('',(1.,0.,0.));
#464=DIRECTION('',(0.,0.,-1.));
#465=DIRECTION('',(0.,-1.,0.));
#466=DIRECTION('',(0.,0.,-1.));
#467=DIRECTION('',(0.,-1.,0.));
#468=DIRECTION('',(0.,0.,-1.));
#469=DIRECTION('',(0.,1.,0.));
#470=DIRECTION('',(0.,0.,1.));
#471=DIRECTION('',(1.,0.,0.));
#472=DIRECTION('',(0.,0.,-1.));
#473=DIRECTION('',(1.,0.,0.));
#474=DIRECTION('',(1.,0.,0.));
#475=DIRECTION('',(0.,0.,-1.));
#476=DIRECTION('',(0.,-1.,0.));
#477=DIRECTION('',(0.,0.,-1.));
#478=DIRECTION('',(0.,-1.,0.));
#479=DIRECTION('',(1.,0.,0.));
#480=DIRECTION('',(0.,0.,-1.));
#481=DIRECTION('',(0.,-1.,0.));
#482=DIRECTION('',(0.,0.,-1.));
#483=DIRECTION('',(0.,-1.,0.));
#484=DIRECTION('',(0.,0.,-1.));
#485=DIRECTION('',(0.,-1.,0.));
#486=DIRECTION('',(0.,0.,-1.));
#487=DIRECTION('',(-1.,0.,0.));
#488=DIRECTION('',(0.,0.,-1.));
#489=DIRECTION('',(-1.,0.,0.));
#490=DIRECTION('',(1.,0.,0.));
#491=DIRECTION('',(0.,0.,-1.));
#492=DIRECTION('',(0.,-1.,0.));
#493=DIRECTION('',(0.,0.,-1.));
#494=DIRECTION('',(0.,-1.,0.));
#495=DIRECTION('',(0.,-1.,0.));
#496=DIRECTION('',(0.,0.,-1.));
#497=DIRECTION('',(-1.,0.,0.));
#498=DIRECTION('',(0.,0.,-1.));
#499=DIRECTION('',(-1.,0.,0.));
#500=DIRECTION('',(0.,0.,-1.));
#501=DIRECTION('',(1.,0.,0.));
#502=DIRECTION('',(0.,0.,-1.));
#503=DIRECTION('',(0.,-1.,0.));
#504=DIRECTION('',(0.,0.,-1.));
#505=DIRECTION('',(0.,-1.,0.));
#506=DIRECTION('',(0.,-1.,0.));
#507=DIRECTION('',(0.,0.,-1.));
#508=DIRECTION('',(-1.,0.,0.));
#509=DIRECTION('',(0.,0.,-1.));
#510=DIRECTION('',(-1.,0.,0.));
#511=DIRECTION('',(0.,1.,0.));
#512=DIRECTION('',(0.,0.,1.));
#513=DIRECTION('',(1.,0.,0.));
#514=DIRECTION('',(1.,0.,0.));
#515=DIRECTION('',(0.,-1.,0.));
#516=DIRECTION('',(0.,0.,-1.));
#517=DIRECTION('',(-1.,0.,0.));
#518=DIRECTION('',(-1.,0.,0.));
#519=DIRECTION('',(0.,0.,-1.));
#520=DIRECTION('',(-1.,0.,0.));
#521=DIRECTION('',(0.,0.,1.));
#522=DIRECTION('',(1.,0.,0.));
#523=DIRECTION('',(0.,0.,1.));
#524=DIRECTION('',(1.,0.,0.));
#525=DIRECTION('',(0.,0.,-1.));
#526=DIRECTION('',(-1.,0.,0.));
#527=DIRECTION('',(0.,0.,-1.));
#528=DIRECTION('',(1.,0.,0.));
#529=DIRECTION('',(0.,0.,-1.));
#530=DIRECTION('',(1.,0.,0.));
#531=DIRECTION('',(1.,9.75591410039681E-16,0.));
#532=DIRECTION('',(-9.75591410039681E-16,1.,0.));
#533=DIRECTION('',(9.75591410039681E-16,-1.,0.));
#534=DIRECTION('',(9.75591410039681E-16,-1.,0.));
#535=DIRECTION('',(0.,-1.,0.));
#536=DIRECTION('',(0.,0.,-1.));
#537=DIRECTION('',(-1.,0.,0.));
#538=DIRECTION('',(-1.,0.,0.));
#539=DIRECTION('',(0.,0.,1.));
#540=DIRECTION('',(1.,0.,0.));
#541=DIRECTION('',(0.,0.,1.));
#542=DIRECTION('',(1.,0.,0.));
#543=CARTESIAN_POINT('',(0.,0.,0.));
#544=CARTESIAN_POINT('',(0.,0.00635,0.0028));
#545=CARTESIAN_POINT('',(0.,0.00635,0.));
#546=CARTESIAN_POINT('',(0.,0.0127,0.));
#547=CARTESIAN_POINT('',(0.,0.,0.));
#548=CARTESIAN_POINT('',(0.,0.,0.0028));
#549=CARTESIAN_POINT('',(0.,0.,0.0028));
#550=CARTESIAN_POINT('',(0.,0.00635,0.0028));
#551=CARTESIAN_POINT('',(0.,0.0127,0.0028));
#552=CARTESIAN_POINT('',(0.,0.0127,0.0028));
#553=CARTESIAN_POINT('',(0.028575,0.,0.0028));
#554=CARTESIAN_POINT('',(0.028575,0.,0.));
#555=CARTESIAN_POINT('',(0.05715,0.,0.));
#556=CARTESIAN_POINT('',(0.05715,0.,0.0028));
#557=CARTESIAN_POINT('',(0.05715,0.,0.0028));
#558=CARTESIAN_POINT('',(0.028575,0.,0.0028));
#559=CARTESIAN_POINT('',(0.05715,0.00635,0.0028));
#560=CARTESIAN_POINT('',(0.05715,0.00635,0.));
#561=CARTESIAN_POINT('',(0.05715,0.0127,0.));
#562=CARTESIAN_POINT('',(0.05715,0.0127,0.0028));
#563=CARTESIAN_POINT('',(0.05715,0.0127,0.0028));
#564=CARTESIAN_POINT('',(0.05715,0.00635,0.0028));
#565=CARTESIAN_POINT('',(0.0103459702804685,0.00635,0.0028));
#566=CARTESIAN_POINT('',(0.0103459702804685,0.00635,0.));
#567=CARTESIAN_POINT('',(0.0103459702804685,0.01135,0.));
#568=CARTESIAN_POINT('',(0.0103459702804685,0.00135,0.));
#569=CARTESIAN_POINT('',(0.0103459702804685,0.01135,0.0028));
#570=CARTESIAN_POINT('',(0.0103459702804685,0.01135,0.0028));
#571=CARTESIAN_POINT('',(0.0103459702804685,0.00635,0.0028));
#572=CARTESIAN_POINT('',(0.0103459702804685,0.00135,0.0028));
#573=CARTESIAN_POINT('',(0.0103459702804685,0.00135,0.0028));
#574=CARTESIAN_POINT('',(0.0128459702804685,0.01135,0.0028));
#575=CARTESIAN_POINT('',(0.0128459702804685,0.01135,0.));
#576=CARTESIAN_POINT('',(0.0153459702804684,0.01135,0.));
#577=CARTESIAN_POINT('',(0.0153459702804684,0.01135,0.0028));
#578=CARTESIAN_POINT('',(0.0153459702804684,0.01135,0.0028));
#579=CARTESIAN_POINT('',(0.0128459702804685,0.01135,0.0028));
#580=CARTESIAN_POINT('',(0.0153459702804684,0.00635,0.0028));
#581=CARTESIAN_POINT('',(0.0153459702804684,0.00635,0.));
#582=CARTESIAN_POINT('',(0.0153459702804684,0.00135,0.));
#583=CARTESIAN_POINT('',(0.0153459702804684,0.00135,0.0028));
#584=CARTESIAN_POINT('',(0.0153459702804684,0.00135,0.0028));
#585=CARTESIAN_POINT('',(0.0153459702804684,0.00635,0.0028));
#586=CARTESIAN_POINT('',(0.0418040297195316,0.00635,0.0028));
#587=CARTESIAN_POINT('',(0.0418040297195316,0.00635,0.));
#588=CARTESIAN_POINT('',(0.0418040297195316,0.01135,0.));
#589=CARTESIAN_POINT('',(0.0418040297195316,0.00135,0.));
#590=CARTESIAN_POINT('',(0.0418040297195316,0.01135,0.0028));
#591=CARTESIAN_POINT('',(0.0418040297195316,0.01135,0.0028));
#592=CARTESIAN_POINT('',(0.0418040297195316,0.00635,0.0028));
#593=CARTESIAN_POINT('',(0.0418040297195316,0.00135,0.0028));
#594=CARTESIAN_POINT('',(0.0418040297195316,0.00135,0.0028));
#595=CARTESIAN_POINT('',(0.0443040297195315,0.01135,0.0028));
#596=CARTESIAN_POINT('',(0.0443040297195315,0.01135,0.));
#597=CARTESIAN_POINT('',(0.0468040297195315,0.01135,0.));
#598=CARTESIAN_POINT('',(0.0468040297195315,0.01135,0.0028));
#599=CARTESIAN_POINT('',(0.0468040297195315,0.01135,0.0028));
#600=CARTESIAN_POINT('',(0.0443040297195315,0.01135,0.0028));
#601=CARTESIAN_POINT('',(0.0468040297195315,0.00635,0.0028));
#602=CARTESIAN_POINT('',(0.0468040297195315,0.00635,0.));
#603=CARTESIAN_POINT('',(0.0468040297195315,0.00135,0.));
#604=CARTESIAN_POINT('',(0.0468040297195315,0.00135,0.0028));
#605=CARTESIAN_POINT('',(0.0468040297195315,0.00135,0.0028));
#606=CARTESIAN_POINT('',(0.0468040297195315,0.00635,0.0028));
#607=CARTESIAN_POINT('',(0.028575,0.0111125,0.0028));
#608=CARTESIAN_POINT('',(0.028575,0.0111125,0.));
#609=CARTESIAN_POINT('',(0.032575,0.0111125,0.));
#610=CARTESIAN_POINT('',(0.024575,0.0111125,0.));
#611=CARTESIAN_POINT('',(0.032575,0.0111125,0.0028));
#612=CARTESIAN_POINT('',(0.032575,0.0111125,0.0028));
#613=CARTESIAN_POINT('',(0.028575,0.0111125,0.0028));
#614=CARTESIAN_POINT('',(0.024575,0.0111125,0.0028));
#615=CARTESIAN_POINT('',(0.024575,0.0111125,0.0028));
#616=CARTESIAN_POINT('',(0.032575,0.00755625,0.0028));
#617=CARTESIAN_POINT('',(0.032575,0.00755625,0.));
#618=CARTESIAN_POINT('',(0.032575,0.004,0.));
#619=CARTESIAN_POINT('',(0.032575,0.004,0.0028));
#620=CARTESIAN_POINT('',(0.032575,0.004,0.0028));
#621=CARTESIAN_POINT('',(0.032575,0.00755625,0.0028));
#622=CARTESIAN_POINT('',(0.028575,0.004,0.0028));
#623=CARTESIAN_POINT('',(0.028575,0.004,0.));
#624=CARTESIAN_POINT('',(0.024575,0.004,0.));
#625=CARTESIAN_POINT('',(0.024575,0.004,0.0028));
#626=CARTESIAN_POINT('',(0.024575,0.004,0.0028));
#627=CARTESIAN_POINT('',(0.028575,0.004,0.0028));
#628=CARTESIAN_POINT('',(0.0128459702804685,0.00135,0.0028));
#629=CARTESIAN_POINT('',(0.0128459702804685,0.00135,0.));
#630=CARTESIAN_POINT('',(0.0128459702804685,0.00135,0.0028));
#631=CARTESIAN_POINT('',(0.0443040297195315,0.00135,0.0028));
#632=CARTESIAN_POINT('',(0.0443040297195315,0.00135,0.));
#633=CARTESIAN_POINT('',(0.0443040297195315,0.00135,0.0028));
#634=CARTESIAN_POINT('',(0.00438125,0.00635,0.0028));
#635=CARTESIAN_POINT('',(0.00438125,0.00635,0.0028));
#636=CARTESIAN_POINT('',(0.0067625,0.00635,0.0028));
#637=CARTESIAN_POINT('',(0.00438125,0.00635,0.));
#638=CARTESIAN_POINT('',(0.0067625,0.00635,0.));
#639=CARTESIAN_POINT('',(0.05276875,0.00635,0.0028));
#640=CARTESIAN_POINT('',(0.05276875,0.00635,0.0028));
#641=CARTESIAN_POINT('',(0.05515,0.00635,0.0028));
#642=CARTESIAN_POINT('',(0.05276875,0.00635,0.));
#643=CARTESIAN_POINT('',(0.05515,0.00635,0.));
#644=CARTESIAN_POINT('',(0.024575,0.00755625,0.0028));
#645=CARTESIAN_POINT('',(0.024575,0.00755625,0.));
#646=CARTESIAN_POINT('',(0.024575,0.00755625,0.0028));
#647=CARTESIAN_POINT('',(0.028575,0.0127,0.0028));
#648=CARTESIAN_POINT('',(0.028575,0.0127,0.));
#649=CARTESIAN_POINT('',(0.028575,0.0127,0.0028));
#650=CARTESIAN_POINT('',(0.028575,0.00635,0.0028));
#651=CARTESIAN_POINT('',(0.028575,0.00635,0.));
#652=MECHANICAL_DESIGN_GEOMETRIC_PRESENTATION_REPRESENTATION('',(#409),
#653);
#653=(
GEOMETRIC_REPRESENTATION_CONTEXT(3)
GLOBAL_UNCERTAINTY_ASSIGNED_CONTEXT((#654))
GLOBAL_UNIT_ASSIGNED_CONTEXT((#657,#656,#655))
REPRESENTATION_CONTEXT('Part 1','TOP_LEVEL_ASSEMBLY_PART')
);
#654=UNCERTAINTY_MEASURE_WITH_UNIT(LENGTH_MEASURE(1.E-8),#657,
'DISTANCE_ACCURACY_VALUE','Maximum Tolerance applied to model');
#655=(
NAMED_UNIT(*)
SI_UNIT($,.STERADIAN.)
SOLID_ANGLE_UNIT()
);
#656=(
NAMED_UNIT(*)
PLANE_ANGLE_UNIT()
SI_UNIT($,.RADIAN.)
);
#657=(
LENGTH_UNIT()
NAMED_UNIT(*)
SI_UNIT($,.METRE.)
);
#658=PRODUCT_DEFINITION_SHAPE('','',#659);
#659=PRODUCT_DEFINITION('','',#661,#660);
#660=PRODUCT_DEFINITION_CONTEXT('',#667,'design');
#661=PRODUCT_DEFINITION_FORMATION_WITH_SPECIFIED_SOURCE('','',#663,
 .NOT_KNOWN.);
#662=PRODUCT_RELATED_PRODUCT_CATEGORY('','',(#663));
#663=PRODUCT('Part 1','Part 1','Part 1',(#665));
#664=PRODUCT_CATEGORY('','');
#665=PRODUCT_CONTEXT('',#667,'mechanical');
#666=APPLICATION_PROTOCOL_DEFINITION('international standard',
'ap242_managed_model_based_3d_engineering',2020,#667);
#667=APPLICATION_CONTEXT('managed model based 3d engineering');
ENDSEC;
END-ISO-10303-21;
