ISO-10303-21;
HEADER;
/* Generated by software containing ST-Developer
 * from STEP Tools, Inc. (www.steptools.com) 
 */
/* OPTION: using custom renumber hook */

FILE_DESCRIPTION(
/* description */ ('STEP AP242 Edition 2',
'CAx-IF Rec.Pracs.---Representation and Presentation of Product Manufa
cturing Information (PMI)---4.0---2014-10-13',
'CAx-IF Rec.Pracs.---3D Tessellated Geometry---0.4---2014-09-14','2;1',
'CAx-IF Rec.Pracs.---User Defined Attributes---1.5---2016-08-15'),
/* implementation_level */ '2;1');

FILE_NAME(
/* name */ 'Part Studio 1',
/* time_stamp */ '2026-07-05T00:09:50Z',
/* author */ (''),
/* organization */ (''),
/* preprocessor_version */ 'ST-DEVELOPER v20',
/* originating_system */ 'ONSHAPE BY PTC INC, 1.217',
/* authorisation */ '  ');

FILE_SCHEMA (('AP242_MANAGED_MODEL_BASED_3D_ENGINEERING_MIM_LF { 1 0 10303 442 3 1 4 }'));
ENDSEC;

DATA;
#10=SHAPE_REPRESENTATION_RELATIONSHIP('','',#223,#11);
#11=ADVANCED_BREP_SHAPE_REPRESENTATION('',(#221),#347);
#12=CIRCLE('',#232,0.00238125);
#13=CIRCLE('',#233,0.00238125);
#14=CYLINDRICAL_SURFACE('',#231,0.00238125);
#15=ORIENTED_EDGE('',*,*,#67,.T.);
#16=ORIENTED_EDGE('',*,*,#68,.F.);
#17=ORIENTED_EDGE('',*,*,#69,.F.);
#18=ORIENTED_EDGE('',*,*,#70,.T.);
#19=ORIENTED_EDGE('',*,*,#71,.F.);
#20=ORIENTED_EDGE('',*,*,#72,.F.);
#21=ORIENTED_EDGE('',*,*,#73,.T.);
#22=ORIENTED_EDGE('',*,*,#68,.T.);
#23=ORIENTED_EDGE('',*,*,#74,.T.);
#24=ORIENTED_EDGE('',*,*,#75,.F.);
#25=ORIENTED_EDGE('',*,*,#76,.F.);
#26=ORIENTED_EDGE('',*,*,#72,.T.);
#27=ORIENTED_EDGE('',*,*,#77,.F.);
#28=ORIENTED_EDGE('',*,*,#78,.F.);
#29=ORIENTED_EDGE('',*,*,#79,.T.);
#30=ORIENTED_EDGE('',*,*,#80,.T.);
#31=ORIENTED_EDGE('',*,*,#81,.T.);
#32=ORIENTED_EDGE('',*,*,#82,.F.);
#33=ORIENTED_EDGE('',*,*,#83,.F.);
#34=ORIENTED_EDGE('',*,*,#78,.T.);
#35=ORIENTED_EDGE('',*,*,#84,.T.);
#36=ORIENTED_EDGE('',*,*,#85,.F.);
#37=ORIENTED_EDGE('',*,*,#86,.F.);
#38=ORIENTED_EDGE('',*,*,#82,.T.);
#39=ORIENTED_EDGE('',*,*,#87,.T.);
#40=ORIENTED_EDGE('',*,*,#88,.F.);
#41=ORIENTED_EDGE('',*,*,#89,.T.);
#42=ORIENTED_EDGE('',*,*,#80,.F.);
#43=ORIENTED_EDGE('',*,*,#90,.F.);
#44=ORIENTED_EDGE('',*,*,#85,.T.);
#45=ORIENTED_EDGE('',*,*,#91,.T.);
#46=ORIENTED_EDGE('',*,*,#70,.F.);
#47=ORIENTED_EDGE('',*,*,#92,.F.);
#48=ORIENTED_EDGE('',*,*,#75,.T.);
#49=ORIENTED_EDGE('',*,*,#79,.F.);
#50=ORIENTED_EDGE('',*,*,#83,.T.);
#51=ORIENTED_EDGE('',*,*,#86,.T.);
#52=ORIENTED_EDGE('',*,*,#90,.T.);
#53=ORIENTED_EDGE('',*,*,#87,.F.);
#54=ORIENTED_EDGE('',*,*,#69,.T.);
#55=ORIENTED_EDGE('',*,*,#73,.F.);
#56=ORIENTED_EDGE('',*,*,#76,.T.);
#57=ORIENTED_EDGE('',*,*,#92,.T.);
#58=ORIENTED_EDGE('',*,*,#77,.T.);
#59=ORIENTED_EDGE('',*,*,#89,.F.);
#60=ORIENTED_EDGE('',*,*,#84,.F.);
#61=ORIENTED_EDGE('',*,*,#81,.F.);
#62=ORIENTED_EDGE('',*,*,#88,.T.);
#63=ORIENTED_EDGE('',*,*,#67,.F.);
#64=ORIENTED_EDGE('',*,*,#91,.F.);
#65=ORIENTED_EDGE('',*,*,#74,.F.);
#66=ORIENTED_EDGE('',*,*,#71,.T.);
#67=EDGE_CURVE('',#93,#94,#111,.T.);
#68=EDGE_CURVE('',#95,#94,#112,.T.);
#69=EDGE_CURVE('',#96,#95,#113,.T.);
#70=EDGE_CURVE('',#96,#93,#114,.T.);
#71=EDGE_CURVE('',#97,#94,#115,.T.);
#72=EDGE_CURVE('',#98,#97,#116,.T.);
#73=EDGE_CURVE('',#98,#95,#117,.T.);
#74=EDGE_CURVE('',#97,#99,#118,.T.);
#75=EDGE_CURVE('',#100,#99,#119,.T.);
#76=EDGE_CURVE('',#98,#100,#120,.T.);
#77=EDGE_CURVE('',#101,#102,#121,.T.);
#78=EDGE_CURVE('',#103,#101,#122,.T.);
#79=EDGE_CURVE('',#103,#104,#123,.T.);
#80=EDGE_CURVE('',#104,#102,#124,.T.);
#81=EDGE_CURVE('',#101,#105,#125,.T.);
#82=EDGE_CURVE('',#106,#105,#126,.T.);
#83=EDGE_CURVE('',#103,#106,#127,.T.);
#84=EDGE_CURVE('',#105,#107,#128,.T.);
#85=EDGE_CURVE('',#108,#107,#129,.T.);
#86=EDGE_CURVE('',#106,#108,#130,.T.);
#87=EDGE_CURVE('',#109,#109,#12,.T.);
#88=EDGE_CURVE('',#110,#110,#13,.T.);
#89=EDGE_CURVE('',#107,#102,#131,.T.);
#90=EDGE_CURVE('',#108,#104,#132,.T.);
#91=EDGE_CURVE('',#99,#93,#133,.T.);
#92=EDGE_CURVE('',#100,#96,#134,.T.);
#93=VERTEX_POINT('',#293);
#94=VERTEX_POINT('',#294);
#95=VERTEX_POINT('',#296);
#96=VERTEX_POINT('',#298);
#97=VERTEX_POINT('',#302);
#98=VERTEX_POINT('',#304);
#99=VERTEX_POINT('',#308);
#100=VERTEX_POINT('',#310);
#101=VERTEX_POINT('',#314);
#102=VERTEX_POINT('',#315);
#103=VERTEX_POINT('',#317);
#104=VERTEX_POINT('',#319);
#105=VERTEX_POINT('',#323);
#106=VERTEX_POINT('',#325);
#107=VERTEX_POINT('',#329);
#108=VERTEX_POINT('',#331);
#109=VERTEX_POINT('',#335);
#110=VERTEX_POINT('',#337);
#111=LINE('',#292,#135);
#112=LINE('',#295,#136);
#113=LINE('',#297,#137);
#114=LINE('',#299,#138);
#115=LINE('',#301,#139);
#116=LINE('',#303,#140);
#117=LINE('',#305,#141);
#118=LINE('',#307,#142);
#119=LINE('',#309,#143);
#120=LINE('',#311,#144);
#121=LINE('',#313,#145);
#122=LINE('',#316,#146);
#123=LINE('',#318,#147);
#124=LINE('',#320,#148);
#125=LINE('',#322,#149);
#126=LINE('',#324,#150);
#127=LINE('',#326,#151);
#128=LINE('',#328,#152);
#129=LINE('',#330,#153);
#130=LINE('',#332,#154);
#131=LINE('',#339,#155);
#132=LINE('',#340,#156);
#133=LINE('',#342,#157);
#134=LINE('',#343,#158);
#135=VECTOR('',#242,1.);
#136=VECTOR('',#243,1.);
#137=VECTOR('',#244,1.);
#138=VECTOR('',#245,1.);
#139=VECTOR('',#248,1.);
#140=VECTOR('',#249,1.);
#141=VECTOR('',#250,1.);
#142=VECTOR('',#253,1.);
#143=VECTOR('',#254,1.);
#144=VECTOR('',#255,1.);
#145=VECTOR('',#258,1.);
#146=VECTOR('',#259,1.);
#147=VECTOR('',#260,1.);
#148=VECTOR('',#261,1.);
#149=VECTOR('',#264,1.);
#150=VECTOR('',#265,1.);
#151=VECTOR('',#266,1.);
#152=VECTOR('',#269,1.);
#153=VECTOR('',#270,1.);
#154=VECTOR('',#271,1.);
#155=VECTOR('',#280,1.);
#156=VECTOR('',#281,1.);
#157=VECTOR('',#284,1.);
#158=VECTOR('',#285,1.);
#159=EDGE_LOOP('',(#15,#16,#17,#18));
#160=EDGE_LOOP('',(#19,#20,#21,#22));
#161=EDGE_LOOP('',(#23,#24,#25,#26));
#162=EDGE_LOOP('',(#27,#28,#29,#30));
#163=EDGE_LOOP('',(#31,#32,#33,#34));
#164=EDGE_LOOP('',(#35,#36,#37,#38));
#165=EDGE_LOOP('',(#39));
#166=EDGE_LOOP('',(#40));
#167=EDGE_LOOP('',(#41,#42,#43,#44));
#168=EDGE_LOOP('',(#45,#46,#47,#48));
#169=EDGE_LOOP('',(#49,#50,#51,#52));
#170=EDGE_LOOP('',(#53));
#171=EDGE_LOOP('',(#54,#55,#56,#57));
#172=EDGE_LOOP('',(#58,#59,#60,#61));
#173=EDGE_LOOP('',(#62));
#174=EDGE_LOOP('',(#63,#64,#65,#66));
#175=FACE_BOUND('',#159,.T.);
#176=FACE_BOUND('',#160,.T.);
#177=FACE_BOUND('',#161,.T.);
#178=FACE_BOUND('',#162,.T.);
#179=FACE_BOUND('',#163,.T.);
#180=FACE_BOUND('',#164,.T.);
#181=FACE_BOUND('',#165,.T.);
#182=FACE_BOUND('',#166,.T.);
#183=FACE_BOUND('',#167,.T.);
#184=FACE_BOUND('',#168,.T.);
#185=FACE_BOUND('',#169,.T.);
#186=FACE_BOUND('',#170,.T.);
#187=FACE_BOUND('',#171,.T.);
#188=FACE_BOUND('',#172,.T.);
#189=FACE_BOUND('',#173,.T.);
#190=FACE_BOUND('',#174,.T.);
#191=PLANE('',#225);
#192=PLANE('',#226);
#193=PLANE('',#227);
#194=PLANE('',#228);
#195=PLANE('',#229);
#196=PLANE('',#230);
#197=PLANE('',#234);
#198=PLANE('',#235);
#199=PLANE('',#236);
#200=PLANE('',#237);
#201=ADVANCED_FACE('',(#175),#191,.F.);
#202=ADVANCED_FACE('',(#176),#192,.T.);
#203=ADVANCED_FACE('',(#177),#193,.F.);
#204=ADVANCED_FACE('',(#178),#194,.T.);
#205=ADVANCED_FACE('',(#179),#195,.F.);
#206=ADVANCED_FACE('',(#180),#196,.F.);
#207=ADVANCED_FACE('',(#181,#182),#14,.F.);
#208=ADVANCED_FACE('',(#183),#197,.F.);
#209=ADVANCED_FACE('',(#184),#198,.F.);
#210=ADVANCED_FACE('',(#185,#186,#187),#199,.T.);
#211=ADVANCED_FACE('',(#188,#189,#190),#200,.F.);
#212=CLOSED_SHELL('',(#201,#202,#203,#204,#205,#206,#207,#208,#209,#210,
#211));
#213=STYLED_ITEM('',(#214),#221);
#214=PRESENTATION_STYLE_ASSIGNMENT((#215));
#215=SURFACE_STYLE_USAGE(.BOTH.,#216);
#216=SURFACE_SIDE_STYLE('',(#217));
#217=SURFACE_STYLE_FILL_AREA(#218);
#218=FILL_AREA_STYLE('',(#219));
#219=FILL_AREA_STYLE_COLOUR('',#220);
#220=COLOUR_RGB('',0.615686274509804,0.811764705882353,0.929411764705882);
#221=MANIFOLD_SOLID_BREP('Part 1',#212);
#222=SHAPE_DEFINITION_REPRESENTATION(#352,#223);
#223=SHAPE_REPRESENTATION('Part 1',(#224),#347);
#224=AXIS2_PLACEMENT_3D('',#290,#238,#239);
#225=AXIS2_PLACEMENT_3D('',#291,#240,#241);
#226=AXIS2_PLACEMENT_3D('',#300,#246,#247);
#227=AXIS2_PLACEMENT_3D('',#306,#251,#252);
#228=AXIS2_PLACEMENT_3D('',#312,#256,#257);
#229=AXIS2_PLACEMENT_3D('',#321,#262,#263);
#230=AXIS2_PLACEMENT_3D('',#327,#267,#268);
#231=AXIS2_PLACEMENT_3D('',#333,#272,#273);
#232=AXIS2_PLACEMENT_3D('',#334,#274,#275);
#233=AXIS2_PLACEMENT_3D('',#336,#276,#277);
#234=AXIS2_PLACEMENT_3D('',#338,#278,#279);
#235=AXIS2_PLACEMENT_3D('',#341,#282,#283);
#236=AXIS2_PLACEMENT_3D('',#344,#286,#287);
#237=AXIS2_PLACEMENT_3D('',#345,#288,#289);
#238=DIRECTION('',(0.,0.,1.));
#239=DIRECTION('',(1.,0.,0.));
#240=DIRECTION('',(1.,0.,0.));
#241=DIRECTION('',(0.,0.,-1.));
#242=DIRECTION('',(0.,-1.,0.));
#243=DIRECTION('',(0.,0.,-1.));
#244=DIRECTION('',(0.,-1.,0.));
#245=DIRECTION('',(0.,0.,-1.));
#246=DIRECTION('',(0.,1.,0.));
#247=DIRECTION('',(0.,0.,1.));
#248=DIRECTION('',(1.,0.,0.));
#249=DIRECTION('',(0.,0.,-1.));
#250=DIRECTION('',(1.,0.,0.));
#251=DIRECTION('',(-1.,0.,0.));
#252=DIRECTION('',(0.,0.,1.));
#253=DIRECTION('',(0.,1.,0.));
#254=DIRECTION('',(0.,0.,-1.));
#255=DIRECTION('',(0.,1.,0.));
#256=DIRECTION('',(1.,0.,0.));
#257=DIRECTION('',(0.,0.,-1.));
#258=DIRECTION('',(0.,-1.,0.));
#259=DIRECTION('',(0.,0.,-1.));
#260=DIRECTION('',(0.,-1.,0.));
#261=DIRECTION('',(0.,0.,-1.));
#262=DIRECTION('',(0.,-1.,0.));
#263=DIRECTION('',(0.,0.,-1.));
#264=DIRECTION('',(-1.,0.,0.));
#265=DIRECTION('',(0.,0.,-1.));
#266=DIRECTION('',(-1.,0.,0.));
#267=DIRECTION('',(1.,0.,0.));
#268=DIRECTION('',(0.,0.,-1.));
#269=DIRECTION('',(0.,-1.,0.));
#270=DIRECTION('',(0.,0.,-1.));
#271=DIRECTION('',(0.,-1.,0.));
#272=DIRECTION('',(0.,0.,-1.));
#273=DIRECTION('',(-1.,0.,0.));
#274=DIRECTION('',(0.,0.,1.));
#275=DIRECTION('',(1.,0.,0.));
#276=DIRECTION('',(0.,0.,1.));
#277=DIRECTION('',(1.,0.,0.));
#278=DIRECTION('',(0.,1.,0.));
#279=DIRECTION('',(0.,0.,1.));
#280=DIRECTION('',(1.,0.,0.));
#281=DIRECTION('',(1.,0.,0.));
#282=DIRECTION('',(0.,1.,0.));
#283=DIRECTION('',(0.,0.,1.));
#284=DIRECTION('',(1.,0.,0.));
#285=DIRECTION('',(1.,0.,0.));
#286=DIRECTION('',(0.,0.,1.));
#287=DIRECTION('',(1.,0.,0.));
#288=DIRECTION('',(0.,0.,1.));
#289=DIRECTION('',(1.,0.,0.));
#290=CARTESIAN_POINT('',(0.,0.,0.));
#291=CARTESIAN_POINT('',(0.023,0.00621193639039993,0.002));
#292=CARTESIAN_POINT('',(0.023,0.00621193639039993,0.));
#293=CARTESIAN_POINT('',(0.023,0.0082625,0.));
#294=CARTESIAN_POINT('',(0.023,0.0012625,0.));
#295=CARTESIAN_POINT('',(0.023,0.0012625,0.002));
#296=CARTESIAN_POINT('',(0.023,0.0012625,0.002));
#297=CARTESIAN_POINT('',(0.023,0.00621193639039993,0.002));
#298=CARTESIAN_POINT('',(0.023,0.0082625,0.002));
#299=CARTESIAN_POINT('',(0.023,0.0082625,0.002));
#300=CARTESIAN_POINT('',(0.019,0.0012625,0.002));
#301=CARTESIAN_POINT('',(0.019,0.0012625,0.));
#302=CARTESIAN_POINT('',(0.015,0.0012625,0.));
#303=CARTESIAN_POINT('',(0.015,0.0012625,0.002));
#304=CARTESIAN_POINT('',(0.015,0.0012625,0.002));
#305=CARTESIAN_POINT('',(0.019,0.0012625,0.002));
#306=CARTESIAN_POINT('',(0.015,0.0047625,0.002));
#307=CARTESIAN_POINT('',(0.015,0.0047625,0.));
#308=CARTESIAN_POINT('',(0.015,0.0082625,0.));
#309=CARTESIAN_POINT('',(0.015,0.0082625,0.002));
#310=CARTESIAN_POINT('',(0.015,0.0082625,0.002));
#311=CARTESIAN_POINT('',(0.015,0.0047625,0.002));
#312=CARTESIAN_POINT('',(0.0242,0.00208068639039994,0.002));
#313=CARTESIAN_POINT('',(0.0242,0.00208068639039994,0.));
#314=CARTESIAN_POINT('',(0.0242,0.009525,0.));
#315=CARTESIAN_POINT('',(0.0242,0.,0.));
#316=CARTESIAN_POINT('',(0.0242,0.009525,0.002));
#317=CARTESIAN_POINT('',(0.0242,0.009525,0.002));
#318=CARTESIAN_POINT('',(0.0242,0.00208068639039994,0.002));
#319=CARTESIAN_POINT('',(0.0242,0.,0.002));
#320=CARTESIAN_POINT('',(0.0242,0.,0.002));
#321=CARTESIAN_POINT('',(0.0121,0.009525,0.002));
#322=CARTESIAN_POINT('',(0.0121,0.009525,0.));
#323=CARTESIAN_POINT('',(0.,0.009525,0.));
#324=CARTESIAN_POINT('',(0.,0.009525,0.002));
#325=CARTESIAN_POINT('',(0.,0.009525,0.002));
#326=CARTESIAN_POINT('',(0.0121,0.009525,0.002));
#327=CARTESIAN_POINT('',(0.,0.0047625,0.002));
#328=CARTESIAN_POINT('',(0.,0.0047625,0.));
#329=CARTESIAN_POINT('',(0.,0.,0.));
#330=CARTESIAN_POINT('',(0.,0.,0.002));
#331=CARTESIAN_POINT('',(0.,0.,0.002));
#332=CARTESIAN_POINT('',(0.,0.0047625,0.002));
#333=CARTESIAN_POINT('',(0.00438125,0.0047625,0.002));
#334=CARTESIAN_POINT('',(0.00438125,0.0047625,0.002));
#335=CARTESIAN_POINT('',(0.0067625,0.0047625,0.002));
#336=CARTESIAN_POINT('',(0.00438125,0.0047625,0.));
#337=CARTESIAN_POINT('',(0.0067625,0.0047625,0.));
#338=CARTESIAN_POINT('',(0.0075,0.,0.002));
#339=CARTESIAN_POINT('',(0.0075,0.,0.));
#340=CARTESIAN_POINT('',(0.0075,0.,0.002));
#341=CARTESIAN_POINT('',(0.019,0.0082625,0.002));
#342=CARTESIAN_POINT('',(0.019,0.0082625,0.));
#343=CARTESIAN_POINT('',(0.019,0.0082625,0.002));
#344=CARTESIAN_POINT('',(0.0121,0.0047625,0.002));
#345=CARTESIAN_POINT('',(0.0121,0.0047625,0.));
#346=MECHANICAL_DESIGN_GEOMETRIC_PRESENTATION_REPRESENTATION('',(#213),
#347);
#347=(
GEOMETRIC_REPRESENTATION_CONTEXT(3)
GLOBAL_UNCERTAINTY_ASSIGNED_CONTEXT((#348))
GLOBAL_UNIT_ASSIGNED_CONTEXT((#351,#350,#349))
REPRESENTATION_CONTEXT('Part 1','TOP_LEVEL_ASSEMBLY_PART')
);
#348=UNCERTAINTY_MEASURE_WITH_UNIT(LENGTH_MEASURE(1.E-8),#351,
'DISTANCE_ACCURACY_VALUE','Maximum Tolerance applied to model');
#349=(
NAMED_UNIT(*)
SI_UNIT($,.STERADIAN.)
SOLID_ANGLE_UNIT()
);
#350=(
NAMED_UNIT(*)
PLANE_ANGLE_UNIT()
SI_UNIT($,.RADIAN.)
);
#351=(
LENGTH_UNIT()
NAMED_UNIT(*)
SI_UNIT($,.METRE.)
);
#352=PRODUCT_DEFINITION_SHAPE('','',#353);
#353=PRODUCT_DEFINITION('','',#355,#354);
#354=PRODUCT_DEFINITION_CONTEXT('',#361,'design');
#355=PRODUCT_DEFINITION_FORMATION_WITH_SPECIFIED_SOURCE('','',#357,
 .NOT_KNOWN.);
#356=PRODUCT_RELATED_PRODUCT_CATEGORY('','',(#357));
#357=PRODUCT('Part 1','Part 1','Part 1',(#359));
#358=PRODUCT_CATEGORY('','');
#359=PRODUCT_CONTEXT('',#361,'mechanical');
#360=APPLICATION_PROTOCOL_DEFINITION('international standard',
'ap242_managed_model_based_3d_engineering',2020,#361);
#361=APPLICATION_CONTEXT('managed model based 3d engineering');
ENDSEC;
END-ISO-10303-21;
